<?xml version="1.0" encoding="utf-8"?>
<!-- Generator: Adobe Illustrator 19.0.0, SVG Export Plug-In . SVG Version: 6.00 Build 0)  -->
<svg version="1.1" id="Layer_1" xmlns="http://www.w3.org/2000/svg" xmlns:xlink="http://www.w3.org/1999/xlink" x="0px" y="0px"
	 viewBox="112.2 241 337.6 311" style="enable-background:new 112.2 241 337.6 311;" xml:space="preserve">
<style type="text/css">
	.st0{fill:#E24329;}
	.st1{fill:#FCA326;}
	.st2{fill:#FC6D26;}
	.st3{display:none;}
	.st4{display:inline;opacity:0.1;fill:#E828E3;enable-background:new    ;}
	.st5{display:inline;}
</style>
<g id="logo_art">
	<g>
		<path id="path50_2_" class="st0" d="M281,552L281,552l62.2-191.3H218.9L281,552L281,552z"/>
		<path id="path66_6_" class="st1" d="M131.8,360.7L131.8,360.7l-18.9,58.1c-1.7,5.3,0.1,11.1,4.7,14.4L281,552L131.8,360.7
			L131.8,360.7z"/>
		<path id="path74_2_" class="st0" d="M131.8,360.7h87.1l-37.5-115.2c-1.9-5.9-10.3-5.9-12.3,0L131.8,360.7L131.8,360.7z"/>
		<path id="path82_6_" class="st1" d="M430.3,360.7L430.3,360.7l18.9,58.1c1.7,5.3-0.1,11.1-4.7,14.4L281,552L430.3,360.7
			L430.3,360.7z"/>
		<path id="path86_2_" class="st0" d="M430.3,360.7h-87.1l37.4-115.2c1.9-5.9,10.3-5.9,12.3,0L430.3,360.7L430.3,360.7z"/>
		<polygon class="st2" points="281,552 343.2,360.7 430.3,360.7 		"/>
		<polygon class="st2" points="281,552 131.8,360.7 218.9,360.7 		"/>
	</g>
</g>
<g id="spacing_guides" xmlns:sketch="http://www.bohemiancoding.com/sketch/ns" class="st3">
	<path id="path40_18_" sketch:type="MSShapeGroup" class="st4" d="M-12,117.5v124h586v-124H-12L-12,117.5z"/>
	<path id="path40_16_" sketch:type="MSShapeGroup" class="st4" d="M-12,552.5v124h586v-124H-12L-12,552.5z"/>
	<path id="path40_15_" sketch:type="MSShapeGroup" class="st4" d="M450.2,677h124V117h-124V677L450.2,677z"/>
	<g class="st5">
		<text transform="matrix(1 0 0 1 499.2881 400.3319)" style="font-family:'SourceSansPro-Semibold'; font-size:24px;">1x</text>
	</g>
	<g class="st5">
		<text transform="matrix(1 0 0 1 269.2881 617.9978)" style="font-family:'SourceSansPro-Semibold'; font-size:24px;">1x</text>
	</g>
	<g class="st5">
		<text transform="matrix(1 0 0 1 269.2881 182.998)" style="font-family:'SourceSansPro-Semibold'; font-size:24px;">1x</text>
	</g>
	<path id="path40_5_" sketch:type="MSShapeGroup" class="st4" d="M-12,677h124V117H-12V677L-12,677z"/>
	<g class="st5">
		<text transform="matrix(1 0 0 1 39.2881 400.3319)" style="font-family:'SourceSansPro-Semibold'; font-size:24px;">1x</text>
	</g>
</g>
</svg>
